<?xml version="1.0" standalone="no"?>
<!DOCTYPE svg PUBLIC "-//W3C//DTD SVG 20010904//EN"
 "http://www.w3.org/TR/2001/REC-SVG-20010904/DTD/svg10.dtd">
<svg version="1.0" xmlns="http://www.w3.org/2000/svg"
 width="195.000000pt" height="187.000000pt" viewBox="0 0 195.000000 187.000000"
 preserveAspectRatio="xMidYMid meet">

<g transform="translate(0.000000,187.000000) scale(0.100000,-0.100000)"
fill="#000000" stroke="none">
<path d="M875 1783 c-70 -10 -185 -47 -250 -79 -201 -102 -341 -270 -412 -498
-22 -68 -26 -102 -27 -206 0 -135 10 -196 50 -297 44 -110 94 -184 189 -278
155 -156 335 -230 555 -229 145 1 226 20 357 84 286 140 460 442 438 765 -28
408 -360 728 -768 739 -56 2 -115 1 -132 -1z m247 -108 c91 -19 214 -79 293
-143 247 -201 319 -568 167 -856 -30 -58 -155 -213 -172 -215 -3 0 -14 20 -26
44 l-21 45 64 61 c53 50 64 65 58 82 -4 12 -6 59 -5 104 1 88 -12 129 -66 192
-67 80 -198 105 -300 57 -55 -26 -131 -105 -139 -146 -3 -14 -10 -44 -15 -68
-8 -34 -7 -49 6 -73 13 -25 13 -36 4 -59 -13 -32 -9 -45 22 -61 18 -10 20 -9
15 5 -11 27 0 18 23 -19 12 -20 45 -49 74 -66 46 -27 48 -30 18 -24 -31 6 -33
5 -52 -39 -10 -25 -22 -69 -26 -96 -4 -28 -8 -49 -10 -47 -2 2 -21 71 -43 153
-54 206 -51 199 -106 213 -25 6 -50 9 -55 6 -5 -3 -12 4 -15 16 -8 23 25 56
88 90 19 10 26 19 18 23 -18 11 -13 33 9 39 16 4 19 11 14 34 -5 25 -1 30 33
44 l38 15 -37 25 c-21 13 -38 27 -38 30 0 3 25 16 55 28 30 13 58 27 61 32 3
6 -13 17 -35 26 -23 9 -41 19 -41 22 0 4 18 25 40 46 40 39 40 40 18 47 -13 3
-38 6 -55 7 -18 1 -33 6 -33 12 0 6 14 36 31 66 l31 54 -53 -21 c-29 -11 -57
-16 -61 -12 -5 5 -11 38 -15 75 -5 62 -7 65 -25 56 -11 -6 -38 -27 -60 -47
l-40 -36 -43 49 c-46 53 -48 53 -59 -15 -11 -61 -17 -65 -70 -45 -26 10 -48
16 -50 14 -2 -2 2 -26 9 -54 15 -60 10 -65 -61 -65 -28 0 -53 -3 -57 -6 -3 -4
9 -26 28 -49 19 -23 35 -47 35 -53 0 -6 -21 -27 -46 -46 l-46 -36 26 -10 c15
-5 30 -10 34 -10 3 0 16 -10 29 -22 l23 -22 -31 -32 c-35 -36 -33 -49 12 -59
31 -7 31 -8 25 -51 l-6 -45 35 7 c33 6 35 4 35 -19 0 -29 10 -39 29 -28 10 6
8 16 -8 42 -12 19 -21 41 -21 49 0 8 10 -6 23 -30 12 -25 38 -55 57 -68 19
-13 35 -28 35 -35 0 -6 -29 -19 -65 -30 -36 -10 -66 -20 -67 -21 -2 -2 -17
-51 -35 -111 -17 -60 -34 -102 -36 -95 -3 8 -24 38 -48 67 -130 159 -182 389
-135 588 25 103 43 145 97 226 157 237 435 352 716 294z m-555 -707 c-3 -7 -5
-2 -5 12 0 14 2 19 5 13 2 -7 2 -19 0 -25z m10 -50 c-3 -8 -6 -5 -6 6 -1 11 2
17 5 13 3 -3 4 -12 1 -19z m79 -255 c-8 -15 -15 -25 -16 -21 0 12 23 58 27 54
3 -2 -2 -17 -11 -33z m240 -51 c29 -64 30 -84 4 -107 -26 -24 -25 -33 7 -69
24 -27 23 -26 -10 3 l-37 35 25 26 c33 34 31 51 -10 135 -19 39 -28 61 -19 50
9 -11 27 -44 40 -73z m-271 -32 l-15 -44 32 -35 33 -36 -38 35 -37 36 16 47
c9 27 18 46 20 44 2 -2 -3 -23 -11 -47z"/>
</g>
</svg>
